<svg height='300px' width='300px'  fill="#000000" xmlns="http://www.w3.org/2000/svg" data-name="Layer 1" viewBox="0 0 64 64" x="0px" y="0px"><title>Brain-head-understanding- pate-hand</title><path d="M19,31.275a4.69,4.69,0,0,0,1.813,3.72,4.757,4.757,0,0,0-.48,2.08,4.476,4.476,0,0,0,4.31,4.591,4.329,4.329,0,0,0,4.024,2.9A4.222,4.222,0,0,0,32,42.872a4.222,4.222,0,0,0,3.333,1.694,4.329,4.329,0,0,0,4.024-2.9,4.476,4.476,0,0,0,4.31-4.591,4.77,4.77,0,0,0-.479-2.08A4.692,4.692,0,0,0,45,31.275a4.592,4.592,0,0,0-2.669-4.233c0-.038,0-.078,0-.117A4.583,4.583,0,0,0,39.449,22.6a4.355,4.355,0,0,0-4.116-3.169A4.222,4.222,0,0,0,32,21.128a4.222,4.222,0,0,0-3.333-1.694A4.355,4.355,0,0,0,24.551,22.6a4.583,4.583,0,0,0-2.884,4.322c0,.039,0,.079,0,.117A4.592,4.592,0,0,0,19,31.275Zm16.333-9.908a2.376,2.376,0,0,1,2.2,1.8,1.609,1.609,0,0,1-.672.126,1.5,1.5,0,0,1-1.09-.548l-1.536,1.241a3.52,3.52,0,0,0,2.545,1.238c.048,0,.095,0,.143,0a3.706,3.706,0,0,0,2.11-.674,2.692,2.692,0,0,1,1.3,2.369,3.014,3.014,0,0,1-.065.6.793.793,0,0,0,0,.109,2.07,2.07,0,0,1-1.377.5,2.825,2.825,0,0,1-2.042-1.479l-1.7,1.022a4.739,4.739,0,0,0,3.607,2.385c.082.006.163.008.244.008a4.157,4.157,0,0,0,2.756-1.131A2.7,2.7,0,0,1,43,31.275a2.779,2.779,0,0,1-.94,2.115A4.234,4.234,0,0,0,39,32a4.632,4.632,0,0,0-3.85,2.39l1.7,1.019c1.177-1.832,2.929-1.883,4.152-.191.011.016.012.036.024.051a2.85,2.85,0,0,1,.641,1.806,2.52,2.52,0,0,1-2.271,2.65,3.554,3.554,0,0,0-2.4-.959,3.62,3.62,0,0,0-2.771,1.317l1.542,1.233a1.556,1.556,0,0,1,1.759-.49,2.373,2.373,0,0,1-2.2,1.806A2.514,2.514,0,0,1,33,39.974V24.026A2.515,2.515,0,0,1,35.333,21.367ZM22.242,28.94A4.157,4.157,0,0,0,25,30.071c.081,0,.162,0,.244-.008a4.739,4.739,0,0,0,3.607-2.385l-1.7-1.022a2.825,2.825,0,0,1-2.042,1.479,2.073,2.073,0,0,1-1.377-.5.793.793,0,0,0,0-.109,3.014,3.014,0,0,1-.065-.6,2.692,2.692,0,0,1,1.3-2.369,3.7,3.7,0,0,0,2.11.674l.143,0a3.52,3.52,0,0,0,2.545-1.238l-1.536-1.241a1.494,1.494,0,0,1-1.09.548,1.632,1.632,0,0,1-.672-.126,2.376,2.376,0,0,1,2.2-1.8A2.515,2.515,0,0,1,31,24.026V39.974a2.514,2.514,0,0,1-2.333,2.658,2.373,2.373,0,0,1-2.2-1.806,1.556,1.556,0,0,1,1.759.49l1.542-1.233A3.62,3.62,0,0,0,27,38.766a3.554,3.554,0,0,0-2.4.959,2.52,2.52,0,0,1-2.271-2.65,2.85,2.85,0,0,1,.641-1.806c.012-.015.013-.035.024-.051,1.223-1.692,2.975-1.641,4.152.191l1.7-1.019A4.632,4.632,0,0,0,25,32a4.236,4.236,0,0,0-3.06,1.39A2.779,2.779,0,0,1,21,31.275,2.7,2.7,0,0,1,22.242,28.94Z"></path><path d="M61,4.043H53a.983.983,0,0,0-1,.967v.061L33.65,3.155A27.451,27.451,0,0,0,22.666,4.193L4.636,9.839C3.01,10.348,2,11.454,2,12.728a2.727,2.727,0,0,0,1.187,2.164,6,6,0,0,0,4.833.83L27.214,11.1a10.785,10.785,0,0,1,4.753-.044H30.8c-2.133,0-3.8,1.2-3.8,2.722,0,1.38,1.378,2.514,3.277,2.7l9.046.871q.861.084,1.722.083a17.594,17.594,0,0,0,2.736-.212l6.174-.967H52V17.5a.983.983,0,0,0,1,.967h8a.983.983,0,0,0,1-.967V5.01A.983.983,0,0,0,61,4.043ZM49.875,14.315a.951.951,0,0,0-.16.013l-6.254.978a15.674,15.674,0,0,1-3.939.115l-9.045-.872C29.507,14.456,29,14,29,13.775c0-.278.685-.789,1.8-.789h7.613a.989.989,0,0,0,.987-.815.965.965,0,0,0-.678-1.071L33.374,9.424a12.831,12.831,0,0,0-6.645-.2L7.535,13.845a3.962,3.962,0,0,1-3.117-.476A.9.9,0,0,1,4,12.728c0-.387.515-.82,1.251-1.05h0L23.283,6.031a25.78,25.78,0,0,1,10.153-.954L52,7.015v7.3ZM60,16.534H54V5.977h6Z"></path><path d="M60.813,49.108a5.993,5.993,0,0,0-4.833-.83L36.786,52.9a10.815,10.815,0,0,1-4.753.044H33.2c2.133,0,3.8-1.2,3.8-2.722,0-1.38-1.378-2.514-3.277-2.7l-9.046-.871a17.717,17.717,0,0,0-4.458.129l-6.174.966H12V46.5a.983.983,0,0,0-1-.967H3A.983.983,0,0,0,2,46.5V58.99a.983.983,0,0,0,1,.967h8a.983.983,0,0,0,1-.967v-.061l18.35,1.916A28.488,28.488,0,0,0,33.322,61a26.9,26.9,0,0,0,8.012-1.193l18.03-5.646C60.99,53.652,62,52.546,62,51.272A2.727,2.727,0,0,0,60.813,49.108ZM10,58.023H4V47.465h6V58.023Zm48.749-5.7h0L40.717,57.969a25.782,25.782,0,0,1-10.153.954L12,56.985v-7.3h2.125a.951.951,0,0,0,.16-.013l6.254-.979a15.72,15.72,0,0,1,3.939-.114l9.045.872c.97.093,1.477.554,1.477.774,0,.278-.685.789-1.8.789H25.583a.989.989,0,0,0-.987.815.965.965,0,0,0,.678,1.071l5.352,1.676a12.831,12.831,0,0,0,6.645.2l19.194-4.624a3.958,3.958,0,0,1,3.117.476.9.9,0,0,1,.418.641C60,51.659,59.485,52.092,58.749,52.322Z"></path><path d="M49.629,28.065,52.8,29.292l1.269,3.067a1.014,1.014,0,0,0,1.858,0L57.2,29.292l3.173-1.227a.956.956,0,0,0,0-1.8L57.2,25.042l-1.269-3.067a1.014,1.014,0,0,0-1.858,0L52.8,25.042l-3.173,1.227a.956.956,0,0,0,0,1.8ZM55,26.275l.659.255.264.637-.264.637L55,28.059l-.659-.255-.264-.637.264-.637Z"></path><path d="M9,31.033a1,1,0,0,0-.929.608L6.8,34.708,3.629,35.935a.956.956,0,0,0,0,1.8L6.8,38.957l1.269,3.068a1.014,1.014,0,0,0,1.858,0L11.2,38.957l3.173-1.226a.956.956,0,0,0,0-1.8L11.2,34.708,9.929,31.641A1,1,0,0,0,9,31.033Zm.923,5.8-.264.637L9,37.725l-.659-.255-.264-.637.264-.637L9,35.941l.659.255Z"></path><path d="M45.629,40.768a.956.956,0,0,0,0,1.8l2.459.95.983,2.377a1.014,1.014,0,0,0,1.858,0l.983-2.377,2.459-.95a.956.956,0,0,0,0-1.8l-2.459-.95-.983-2.377a1.014,1.014,0,0,0-1.858,0l-.983,2.377ZM50,41.161l.373.144.149.361-.149.361L50,42.171l-.373-.144-.149-.361.149-.361Z"></path><path d="M20.371,21.436l-2.459-.95-.983-2.377a1.014,1.014,0,0,0-1.858,0l-.983,2.377-2.459.95a.956.956,0,0,0,0,1.8l2.459.95.983,2.377a1.014,1.014,0,0,0,1.858,0l.983-2.377,2.459-.95a.956.956,0,0,0,0-1.8ZM16,22.839l-.373-.144-.149-.361.149-.361L16,21.829l.373.144.149.361-.149.361Z"></path></svg>