<svg height='300px' width='300px'  fill="#000000" xmlns="http://www.w3.org/2000/svg" xmlns:xlink="http://www.w3.org/1999/xlink" version="1.1" x="0px" y="0px" viewBox="0 0 512 512" enable-background="new 0 0 512 512" xml:space="preserve"><path d="M95.914,142.78c0.968,8.374,5.082,18.248,13.583,21.399c7.953,2.951,24.718-2.062,32.652-5.262  c5.648-5.625,11.742-10.797,18.178-15.5l-0.666-1.646C131.941,149.011,95.914,142.78,95.914,142.78z"></path><path d="M407.969,142.78c0,0-36.026,6.231-63.747-1.009l-0.665,1.646c6.817,4.976,12.594,9.975,18.137,15.484  c8.359,3.344,24.603,8.123,32.452,5.365C402.8,161.227,406.993,151.226,407.969,142.78z"></path><path d="M195.783,162.47c-2.948-0.88-9.406-2.348-11.379-0.005c-3.796,4.507,11.768,13.597,20.218,16.114  C225.367,184.764,216.517,168.649,195.783,162.47z"></path><path d="M301.145,163.186c-20.286,9.602-17.211,20.511,3.64,11.377c12.402-5.431,19.437-13.876,12.451-15.176  C312.654,158.534,305.391,161.175,301.145,163.186C292.26,167.391,310.028,158.981,301.145,163.186z"></path><path d="M248.942,201.122v15.812c0,3.869,6,3.869,6,0v-15.555c11.409-1.73,27.963-14.593,20.671-24.824  c-4.457-6.254-15.892-7.48-23.534-7.507v-0.001c-0.091,0.001-0.181,0.001-0.271,0v0.001c-7.85,0.028-19.695,1.334-23.866,7.999  C221.545,187.27,238.637,198.567,248.942,201.122z"></path><path d="M234.182,352.604c-1.656,0-3,1.343-3,3c0,10.215,0,21.687,0,32.768h-29.5v-32.768c0-3.883-6-3.841-6,0v37.666  c0,27.551,41.5,27.034,41.5,0c0-8.175,0-23.654,0-37.666C237.182,353.946,235.839,352.604,234.182,352.604z"></path><path d="M305.202,351.779c-1.656,0-3,1.344-3,3c0,9.611,0,18.109,0,32.768h-29.5c0-8.682,0-21.286,0-32.768c0-3.869-6-3.869-6,0  c0,8.705,0,28.859,0,37.666c0,28.009,41.5,27.31,41.5,0v-37.643v-0.023C308.202,353.123,306.86,351.779,305.202,351.779z"></path><path d="M267.745,234.563c-0.576-0.701-1.803-0.148-1.651,0.752c0.262,1.565,32.656,39.185-3.595,95.22  c-0.835-3.973-7.569-36.009-8.269-39.336l-0.013-0.064c-0.472-2.207-3.742-2.422-4.473-0.273l-10.766,27.096  c-20.835-28.07-16.946-59.717,0.907-81.127c0.616-0.744,0.298-1.936-0.598-2.291c-1.063-0.421-1.974,0.585-2.56,1.333  c-21.363,27.289-23.597,60.158,0.556,91.26l0.128,0.152c5.348,6.24,7.339-5.619,13.902-26.059l6.787,37.244  c0.456,2.474,3.797,3.219,5.285,1.211l0,0c3.066-4.35,3.839-6.09,7.086-11.797C286.881,295.92,290.613,262.288,267.745,234.563z"></path><path d="M426.149,139.728c-1.351-9.902-7.673-12.365-17.415-12.673c-12.004-0.378-24.025-0.164-36.025,0.252  c4.961-7.722,7.177-37.722-13.159-51.015c-23.047-15.065-56.657-10.413-70.577,36.558c-24.262-5.688-49.799-5.688-74.061,0  c-11.277-38.042-34.659-48.316-56.493-42.52l-0.109,0.029c-36.391,9.197-32.573,48.478-27.134,56.947  c-12.557-0.436-25.141-0.657-37.7-0.194c-4.358,0.161-8.532,0.769-11.75,4.005C69.34,143.571,86,186,115.388,183.63  c-63.334,99.3-1.342,233.385,117.492,247.25c135.011,15.755,228.831-132.473,155.616-247.25  C415,184,428.242,155.084,426.149,139.728z M362.193,87.608c-0.403-0.91-1.095-1.723-1.387-2.671  c3.809,3.715,6.128,8.062,7.465,12.483c-1.638,4.915-5.398,8.938-9.871,11.45c-1.428-1.657-2.984-3.177-4.644-4.388  C360.559,101.586,365.277,94.575,362.193,87.608z M352.02,78.965c0.114,0.047,0.247,0.106,0.403,0.182  c2.473,7.516,1.925,16.508-1.41,23.683c-1.92-0.904-4.075-1.334-6.187-1.017c4.141-6.903,4.375-19.843-0.717-25.636  C347.062,76.923,349.682,77.868,352.02,78.965z M343.21,108.898c8.661-6.343,19.241,18.225,19.68,18.801  c-10.996,0.495-20.904,1.119-27.845,1.6C334.766,121.627,336.734,113.649,343.21,108.898z M320.395,77.905  c10.923,3.211,18.685,14.066,20.197,25.531c-2.242,1.396-4.207,3.307-5.823,5.387c1.07-12.437-8.731-26.293-21.926-25.908  C315.153,80.909,317.692,79.214,320.395,77.905z M300.973,98.71c11.494-1.88,24.35,4.023,31.367,13.88  c-1.263,2.435-2.087,5.003-2.604,7.579c-4.167-10.582-19.69-19.246-31.983-14.365C298.689,103.46,299.759,101.072,300.973,98.71z   M201.428,98.532c0.368,0.021,0.85,0.075,1.482,0.179c1.214,2.361,2.284,4.75,3.221,7.094c-12.273-4.875-27.815,3.782-31.983,14.366  c-0.518-2.576-1.342-5.144-2.604-7.579C178.104,103.376,190.041,97.322,201.428,98.532z M183.49,77.906  c2.763,1.327,5.272,3.03,7.55,5.009c-13.194-0.385-22.996,13.471-21.926,25.908c-1.616-2.081-3.581-3.991-5.823-5.387  c0.966-7.318,4.462-14.467,9.818-19.495C176.047,81.184,179.544,79.065,183.49,77.906z M168.838,129.299  c-8.244-0.572-26.889-1.299-27.889-1.299c4-8,9.096-22.302,19-19C166.608,111.219,169.088,122.753,168.838,129.299z M151.46,79.147  c2.436-1.178,5.194-2.182,8.313-2.97c-5.059,5.756-4.893,18.676-0.717,25.636c-2.111-0.317-4.267,0.113-6.187,1.017  C149.834,96.3,148.923,86.857,151.46,79.147z M141.951,86.115c-0.728,0.696-1.163,1.056,1.126-1.178  c-0.03,0.1-8.459,12.941,7.05,19.545c-1.659,1.211-3.216,2.731-4.644,4.389c-4.47-2.51-8.238-6.537-9.871-11.451  C136.811,93.456,138.809,89.557,141.951,86.115z M395.573,177.252c-5.014,0.949-14.583,0.167-20.11-1.764  c0.966,1.933,22.534,26.333,29.817,67.649c12.861,72.964-27.105,142.929-92.94,170.693  c-91.65,38.649-197.549-18.173-214.037-118.192c-7.781-47.202,5.976-86.348,30.12-120.15c-5.992,1.498-12.248,2.713-18.446,2.036  c-18.187-1.985-34.756-37.692-21.911-43.542c8.033-3.66,85.504,1.68,85.604,1.68C237.182,103.5,283.84,114,330.152,135.585  c2.42,0.757,83.689-8.033,88.956,1.406C424.734,147.07,410.593,174.402,395.573,177.252z"></path></svg>