<?xml version="1.0" encoding="UTF-8" standalone="no"?>
<svg
   xmlns:dc="http://purl.org/dc/elements/1.1/"
   xmlns:cc="http://creativecommons.org/ns#"
   xmlns:rdf="http://www.w3.org/1999/02/22-rdf-syntax-ns#"
   xmlns:svg="http://www.w3.org/2000/svg"
   xmlns="http://www.w3.org/2000/svg"
   xmlns:sodipodi="http://sodipodi.sourceforge.net/DTD/sodipodi-0.dtd"
   xmlns:inkscape="http://www.inkscape.org/namespaces/inkscape"
   viewBox="0 0 47 60.017506"
   enable-background="new 0 0 64 64"
   version="1.1"
   id="svg899"
   sodipodi:docname="pear_fully.svg"
   inkscape:version="0.92.3 (2405546, 2018-03-11)"
   width="373.64551"
   height="472.57556">
  <metadata
     id="metadata905">
    <rdf:RDF>
      <cc:Work
         rdf:about="">
        <dc:format>image/svg+xml</dc:format>
        <dc:type
           rdf:resource="http://purl.org/dc/dcmitype/StillImage" />
        <dc:title></dc:title>
      </cc:Work>
    </rdf:RDF>
  </metadata>
  <defs
     id="defs903" />
  <sodipodi:namedview
     pagecolor="#ffffff"
     bordercolor="#666666"
     borderopacity="1"
     objecttolerance="10"
     gridtolerance="10"
     guidetolerance="10"
     inkscape:pageopacity="0"
     inkscape:pageshadow="2"
     inkscape:window-width="1280"
     inkscape:window-height="975"
     id="namedview901"
     showgrid="false"
     inkscape:zoom="11.6875"
     inkscape:cx="21.770149"
     inkscape:cy="28.05"
     inkscape:window-x="0"
     inkscape:window-y="25"
     inkscape:window-maximized="1"
     inkscape:current-layer="svg899"
     fit-margin-top="0"
     fit-margin-left="0"
     fit-margin-right="0"
     fit-margin-bottom="0" />
  <path
     d="m 38.7,25.792505 c -3.8,-6.2 -3.5,-16.7000003 -13.4,-16.7000003 -9.9,0 -8.9,10.5000003 -12.6,16.7000003 -2.7,4.5 -8.2,10.6 -8.2,17.2 0,22.7 42.5,22.7 42.5,0 -0.1,-6.6 -5.6,-12.7 -8.3,-17.2"
     id="path891"
     inkscape:connector-curvature="0"
     style="fill:#ced74d" />
  <path
     d="m 26.3,0.09250473 c -0.1,-0.3 -1.1,0.2 -1,0.5 1.7,4.69999997 -0.4,8.29999997 -0.9,8.79999997 -0.7,0.7000003 0.9,1.3000003 1.6,0.4 0.1,-0.2 2.4,-5 0.3,-9.69999997"
     id="path893"
     inkscape:connector-curvature="0"
     style="fill:#947151" />
  <path
     d="m 12.3,3.1925047 c -4.6,5.5 -12.2,7.9000003 -12.2,7.9000003 0,0 15.5,3.8 23.6,-4.1000003 2.3,-2.2 1.9,-5.99999997 1.9,-5.99999997 0,0 -8.7,-3.30000003 -13.3,2.19999997 z"
     id="path895"
     inkscape:connector-curvature="0"
     style="fill:#8cc63e" />
  <path
     d="m 25.7,0.99250473 c -1.1,0 -2.2,0.1 -3.3,0.39999997 -1.2,0.2 -2.3,0.6 -3.5,1 -2.2,1 -4.2,2.3 -6.2,3.6 -1.9,1.3 -3.9,2.4 -6.1,3.3 C 4.5,10.192505 2.2,10.692505 0,11.092505 c 1.1,-0.1 2.2,-0.2 3.3,-0.4 1.1,-0.2 2.3,-0.6 3.4,-1.0000003 2.3,-0.8 4.4,-2 6.4,-3.3 2,-1.3 3.8,-2.6 5.9,-3.6 2.2,-1 4.5,-1.6 6.7,-1.79999997"
     id="path897"
     inkscape:connector-curvature="0"
     style="fill:#7fb539" />
</svg>
