<?xml version="1.0" encoding="UTF-8" standalone="no"?>
<svg
   xmlns:dc="http://purl.org/dc/elements/1.1/"
   xmlns:cc="http://creativecommons.org/ns#"
   xmlns:rdf="http://www.w3.org/1999/02/22-rdf-syntax-ns#"
   xmlns:svg="http://www.w3.org/2000/svg"
   xmlns="http://www.w3.org/2000/svg"
   xmlns:sodipodi="http://sodipodi.sourceforge.net/DTD/sodipodi-0.dtd"
   xmlns:inkscape="http://www.inkscape.org/namespaces/inkscape"
   viewBox="0 0 47.826625 60.489672"
   enable-background="new 0 0 64 64"
   version="1.1"
   id="svg3775"
   sodipodi:docname="pear_some.svg"
   inkscape:version="0.92.3 (2405546, 2018-03-11)"
   width="373.64551"
   height="472.57556">
  <metadata
     id="metadata3781">
    <rdf:RDF>
      <cc:Work
         rdf:about="">
        <dc:format>image/svg+xml</dc:format>
        <dc:type
           rdf:resource="http://purl.org/dc/dcmitype/StillImage" />
        <dc:title></dc:title>
      </cc:Work>
    </rdf:RDF>
  </metadata>
  <defs
     id="defs3779" />
  <sodipodi:namedview
     pagecolor="#ffffff"
     bordercolor="#666666"
     borderopacity="1"
     objecttolerance="10"
     gridtolerance="10"
     guidetolerance="10"
     inkscape:pageopacity="0"
     inkscape:pageshadow="2"
     inkscape:window-width="1280"
     inkscape:window-height="975"
     id="namedview3777"
     showgrid="false"
     inkscape:zoom="1.6759225"
     inkscape:cx="186.82276"
     inkscape:cy="236.28779"
     inkscape:window-x="0"
     inkscape:window-y="25"
     inkscape:window-maximized="1"
     inkscape:current-layer="svg3775"
     fit-margin-top="0"
     fit-margin-left="0"
     fit-margin-right="0"
     fit-margin-bottom="0" />
  <path
     style="display:inline;fill:none;stroke:#000000;stroke-width:0.5;stroke-miterlimit:4;stroke-dasharray:1, 0.5;stroke-dashoffset:0;stroke-opacity:1"
     d="m 25.865689,9.3410561 c -9.615984,0.187248 -8.67335,10.5475529 -12.339844,16.6914059 -2.7,4.5 -8.1992184,10.599219 -8.1992184,17.199219 0,11.096605 10.1564484,16.754216 20.5390624,17.001953 z"
     id="path3767"
     inkscape:connector-curvature="0" />
  <path
     style="display:inline;fill:#ced74d;stroke-width:3;stroke-miterlimit:4;stroke-dasharray:none"
     d="m 26.125455,9.3312901 c -0.201522,0 -0.391364,0.01096 -0.583985,0.01953 V 60.221915 c 10.958805,0.380961 22.285157,-5.271268 22.285157,-16.990234 -0.1,-6.6 -5.600782,-12.699219 -8.300782,-17.199219 -3.8,-6.2 -3.50039,-16.7011719 -13.40039,-16.7011719 z"
     id="path5012"
     inkscape:label="pear-half"
     inkscape:connector-curvature="0" />
  <path
     d="m 27.126236,0.33168108 c -0.1,-0.3 -1.1,0.2 -1,0.5 1.7,4.70000002 -0.4,8.30000002 -0.9,8.80000002 -0.7,0.6999999 0.9,1.2999999 1.6,0.3999999 0.1,-0.1999999 2.4,-4.9999999 0.3,-9.69999992"
     id="path3769"
     inkscape:label="stalk"
     inkscape:connector-curvature="0"
     style="fill:#947151" />
  <path
     d="m 13.126236,3.4316811 c -4.6000004,5.5 -12.20000037,7.8999999 -12.20000037,7.8999999 0,0 15.50000037,3.8 23.60000037,-4.0999999 2.3,-2.2 1.9,-6 1.9,-6 0,0 -8.7,-3.3 -13.3,2.2 z"
     id="path3771"
     inkscape:label="leaf"
     style="fill:none;stroke:#000000;stroke-width:0.5;stroke-miterlimit:4;stroke-dasharray:1, 0.5;stroke-dashoffset:0;stroke-opacity:1"
     inkscape:connector-curvature="0" />
  <path
     d="m 26.526236,1.2316811 c -1.1,0 -2.2,0.1 -3.3,0.4 -1.2,0.2 -2.3,0.6 -3.5,1 -2.2,1 -4.2,2.3 -6.2,3.6 -1.9,1.3 -3.9000004,2.4 -6.1000004,3.3 -2.1,0.8999999 -4.4,1.3999999 -6.59999997,1.7999999 1.09999997,-0.1 2.19999997,-0.2 3.29999997,-0.4 1.1,-0.2 2.3,-0.6 3.4,-0.9999999 2.3,-0.8 4.4000004,-2 6.4000004,-3.3 2,-1.3 3.8,-2.6 5.9,-3.6 2.2,-1 4.5,-1.6 6.7,-1.8"
     id="path3773"
     inkscape:label="leaf-rib"
     inkscape:connector-curvature="0"
     style="fill:#7fb539" />
</svg>
