<?xml version="1.0" encoding="UTF-8" standalone="no"?>
<!DOCTYPE svg PUBLIC "-//W3C//DTD SVG 1.1//EN" "http://www.w3.org/Graphics/SVG/1.1/DTD/svg11.dtd">
<svg version="1.1" xmlns="http://www.w3.org/2000/svg" xmlns:xlink="http://www.w3.org/1999/xlink" preserveAspectRatio="xMidYMid meet" viewBox="0 0 374 473" width="374" height="473"><defs><path d="M306.54 200.12L304.47 196.29L302.5 192.35L300.62 188.32L298.81 184.2L297.07 180.01L295.4 175.76L293.76 171.46L292.17 167.12L290.6 162.75L289.05 158.36L287.5 153.97L285.94 149.58L284.37 145.21L282.78 140.86L281.14 136.55L279.46 132.28L277.72 128.08L275.91 123.94L274.02 119.89L272.05 115.93L269.97 112.07L267.78 108.32L265.47 104.69L263.02 101.21L260.44 97.86L257.7 94.68L254.79 91.66L251.72 88.82L248.45 86.17L244.99 83.72L241.33 81.48L237.45 79.47L233.34 77.69L229 76.15L224.41 74.87L219.55 73.85L214.43 73.11L209.03 72.66L203.34 72.51L197.66 72.66L192.29 73.11L187.22 73.85L182.43 74.87L177.93 76.15L173.68 77.69L169.69 79.47L165.93 81.48L162.41 83.72L159.11 86.17L156.01 88.82L153.1 91.66L150.38 94.68L147.84 97.86L145.45 101.21L143.21 104.69L141.11 108.32L139.13 112.07L137.27 115.93L135.51 119.89L133.85 123.94L132.26 128.08L130.74 132.28L129.28 136.55L127.86 140.86L126.48 145.21L125.12 149.58L123.77 153.97L122.42 158.36L121.06 162.75L119.68 167.12L118.26 171.46L116.79 175.76L115.27 180.01L113.67 184.2L112 188.32L110.23 192.35L108.35 196.29L106.37 200.12L104.25 203.84L102.62 206.52L100.91 209.24L99.13 212.01L97.29 214.83L95.38 217.69L93.43 220.59L91.43 223.53L89.39 226.52L87.32 229.54L85.22 232.61L83.1 235.71L80.96 238.86L78.81 242.04L76.66 245.25L74.52 248.51L72.38 251.8L70.26 255.12L68.16 258.47L66.08 261.86L64.05 265.28L62.05 268.73L60.09 272.21L58.19 275.73L56.35 279.26L54.57 282.83L52.86 286.42L51.23 290.04L49.68 293.69L48.22 297.36L46.85 301.05L45.59 304.77L44.43 308.51L43.39 312.27L42.46 316.05L41.66 319.85L41 323.66L40.47 327.5L40.08 331.35L39.84 335.22L39.76 339.11L40.38 352.16L42.19 364.55L45.12 376.26L49.12 387.31L54.13 397.69L60.07 407.39L66.89 416.43L74.52 424.8L82.91 432.5L91.99 439.53L101.69 445.89L111.96 451.58L122.73 456.6L133.94 460.95L145.52 464.63L157.42 467.64L169.56 469.99L181.9 471.66L194.36 472.67L206.88 473L219.41 472.67L231.87 471.66L244.2 469.99L256.35 467.64L268.25 464.63L279.83 460.95L291.04 456.6L301.81 451.58L312.07 445.89L321.78 439.53L330.85 432.5L339.24 424.8L346.87 416.43L353.7 407.39L359.64 397.69L364.64 387.31L368.64 376.26L371.58 364.55L373.38 352.16L374 339.11L373.86 335.22L373.57 331.35L373.13 327.5L372.55 323.66L371.84 319.85L371 316.05L370.03 312.27L368.95 308.51L367.75 304.77L366.46 301.05L365.06 297.36L363.57 293.69L361.99 290.04L360.33 286.42L358.6 282.83L356.8 279.26L354.94 275.73L353.02 272.21L351.05 268.73L349.03 265.28L346.98 261.86L344.89 258.47L342.78 255.12L340.65 251.8L338.5 248.51L336.35 245.25L334.19 242.04L332.04 238.86L329.9 235.71L327.77 232.61L325.67 229.54L323.59 226.52L321.55 223.53L319.55 220.59L317.59 217.69L315.69 214.83L313.85 212.01L312.07 209.24L310.36 206.52L308.73 203.84L308.73 203.84L306.54 200.12Z" id="a2FX0Hl3xc"></path><path d="M208.52 0.73C207.73 -1.63 199.87 2.3 200.66 4.66C214.03 41.62 197.51 69.93 193.58 73.87C188.07 79.37 200.66 84.09 206.16 77.01C206.95 75.44 225.04 37.69 208.52 0.73" id="b8hvGZu1gI"></path><path d="M2.47 87.24C2.47 87.24 124.37 117.12 188.07 54.99C206.16 37.69 203.02 7.81 203.02 7.81C203.02 7.81 134.6 -18.15 98.42 25.11C62.24 68.36 21.66 74.81 2.47 87.24Z" id="a1NnCRmHGq"></path><path d="M203.8 7.81C195.15 7.81 186.5 8.59 177.85 10.95C168.41 12.52 159.76 15.67 150.32 18.82C133.02 26.68 117.29 36.9 101.56 47.13C86.62 57.35 70.89 66 53.59 73.08C37.08 80.16 18.99 84.09 1.69 87.24C10.34 86.45 18.99 85.66 27.64 84.09C36.29 82.52 45.73 79.37 54.38 76.23C72.47 69.93 88.98 60.5 104.71 50.27C120.44 40.05 134.6 29.83 151.11 21.96C168.41 14.1 186.5 9.38 203.8 7.81" id="g9WXGJzPk"></path><path d="M249.93 253.33C274.03 253.33 293.55 276.78 293.55 305.72C293.56 385.85 206.31 425.62 206.31 427.82C206.31 427.82 206.31 427.82 206.31 427.82C206.31 425.62 119.06 385.85 119.06 305.71C119.06 276.78 138.59 253.32 162.68 253.32C186.77 253.32 206.31 273.87 206.3 302.81C206.3 273.88 225.84 253.33 249.93 253.33Z" id="k2ak7lNto6"></path></defs><g><g><g><use xlink:href="#a2FX0Hl3xc" opacity="1" fill="#ced74d" fill-opacity="1"></use><g><use xlink:href="#a2FX0Hl3xc" opacity="1" fill-opacity="0" stroke="#000000" stroke-width="1" stroke-opacity="0"></use></g></g><g><use xlink:href="#b8hvGZu1gI" opacity="1" fill="#947151" fill-opacity="1"></use><g><use xlink:href="#b8hvGZu1gI" opacity="1" fill-opacity="0" stroke="#000000" stroke-width="1" stroke-opacity="0"></use></g></g><g><use xlink:href="#a1NnCRmHGq" opacity="1" fill="#8cc63e" fill-opacity="1"></use><g><use xlink:href="#a1NnCRmHGq" opacity="1" fill-opacity="0" stroke="#000000" stroke-width="1" stroke-opacity="0"></use></g></g><g><use xlink:href="#g9WXGJzPk" opacity="1" fill="#7fb539" fill-opacity="1"></use><g><use xlink:href="#g9WXGJzPk" opacity="1" fill-opacity="0" stroke="#000000" stroke-width="1" stroke-opacity="0"></use></g></g><g><use xlink:href="#k2ak7lNto6" opacity="1" fill="#cb5a87" fill-opacity="1"></use></g></g></g></svg>